<?xml version="1.0" encoding="iso-8859-1"?>
<!-- Generator: Adobe Illustrator 19.0.0, SVG Export Plug-In . SVG Version: 6.00 Build 0)  -->
<svg version="1.1" id="Layer_1" xmlns="http://www.w3.org/2000/svg" xmlns:xlink="http://www.w3.org/1999/xlink" x="0px" y="0px"
	 viewBox="0 0 512.001 512.001" style="enable-background:new 0 0 512.001 512.001;" xml:space="preserve">
<path style="fill:#5C5F66;" d="M359.501,69.399H152.5l21.901-44.5C181.901,9.6,197.5,0,214.6,0h82.8
	c17.1,0,32.699,9.6,40.199,24.899L359.501,69.399z"/>
<path style="fill:#53565C;" d="M359.501,69.399H256V0h41.4c17.1,0,32.699,9.6,40.199,24.899L359.501,69.399z"/>
<path style="fill:#5C5F66;" d="M446.201,467c0,8.399-6.601,15-15,15H80.8c-8.399,0-15-6.601-15-15c0-8.401,6.601-15,15-15h350.402
	C439.6,452,446.201,458.599,446.201,467z"/>
<path style="fill:#53565C;" d="M446.201,467c0,8.399-6.601,15-15,15H256v-30h175.201C439.6,452,446.201,458.599,446.201,467z"/>
<path style="fill:#7F838C;" d="M34.633,506.785c-5.405-6.27-4.702-15.747,1.582-21.152l104.487-90
	c6.24-5.391,15.688-4.702,21.152,1.582c5.405,6.27,4.702,15.747-1.582,21.152l-104.487,90
	C49.509,513.765,40.067,513.076,34.633,506.785z"/>
<path style="fill:#757982;" d="M456.215,508.367l-104.487-90c-6.284-5.405-6.987-14.883-1.582-21.152
	c5.42-6.284,14.897-6.973,21.152-1.582l104.487,90c6.284,5.405,6.987,14.883,1.582,21.152
	C471.934,513.076,462.491,513.765,456.215,508.367z"/>
<path style="fill:#E55639;" d="M376,61H136c-41.4,0-75,33.6-75,75v211c0,41.4,33.6,75,75,75h240c41.4,0,75-33.6,75-75V136
	C451,94.6,417.4,61,376,61z"/>
<path style="fill:#CF4529;" d="M451,136v211c0,41.4-33.6,75-75,75H256V61h120C417.4,61,451,94.6,451,136z"/>
<path style="fill:#5C5F66;" d="M449.501,121L405.1,253.9c-11.398,28.5-39,48.1-69.598,48.1H176.5c-30.599,0-58.2-19.6-69.598-48.1
	L62.5,121H449.501z"/>
<path style="fill:#53565C;" d="M449.501,121L405.1,253.9c-11.398,28.5-39,48.1-69.598,48.1H256V121H449.501z"/>
<path style="fill:#DAE2F2;" d="M376,362h-30c-8.291,0-15-6.709-15-15s6.709-15,15-15h30c8.291,0,15,6.709,15,15S384.291,362,376,362
	z"/>
<path style="fill:#E6EEFF;" d="M166,362h-30c-8.291,0-15-6.709-15-15s6.709-15,15-15h30c8.291,0,15,6.709,15,15S174.291,362,166,362
	z"/>
<path style="fill:#5C5F66;" d="M301,377v45h-90v-45c0-24.901,20.099-45,45-45S301,352.099,301,377z"/>
<path style="fill:#53565C;" d="M301,377v45h-45v-90C280.901,332,301,352.099,301,377z"/>
<g>
</g>
<g>
</g>
<g>
</g>
<g>
</g>
<g>
</g>
<g>
</g>
<g>
</g>
<g>
</g>
<g>
</g>
<g>
</g>
<g>
</g>
<g>
</g>
<g>
</g>
<g>
</g>
<g>
</g>
</svg>
